<svg width="70" height="70" viewBox="0 0 70 70" fill="none" xmlns="http://www.w3.org/2000/svg">
<path d="M37.0512 30.1921H32.9496V32.9493H30.1924V37.0509H32.9496V39.8081H37.0512V37.0509H39.8084V32.9493H37.0512V30.1921Z" fill="#373640"/>
<path d="M70 32.9492H66.16C65.6726 25.3802 62.4918 18.3318 57.0799 12.9199C51.6682 7.50818 44.6198 4.32742 37.0508 3.83988V0H32.9492V3.83988C25.3802 4.32742 18.3318 7.50818 12.9201 12.9199C7.50818 18.3318 4.32742 25.3802 3.84002 32.9492H0V37.0508H3.84002C4.32742 44.6198 7.50818 51.6682 12.9201 57.0801C18.3318 62.492 25.3802 65.6727 32.9492 66.1601V70H37.0508V66.1601C44.6198 65.6727 51.6682 62.492 57.0799 57.0801C62.4918 51.6683 65.6726 44.6198 66.16 37.0508H70V32.9492ZM62.0475 32.9492H51.9244C50.9894 25.1851 44.8148 19.0105 37.0508 18.0754V7.95252C50.3759 8.9533 61.0467 19.6241 62.0475 32.9492ZM47.7833 37.0508C46.9044 42.5499 42.5499 46.9045 37.0508 47.7833V44.4333H32.9492V47.7833C27.4501 46.9044 23.0956 42.5499 22.2167 37.0508H25.5665V32.9492H22.2167C23.0956 27.4501 27.4501 23.0955 32.9492 22.2167V25.5667H37.0508V22.2167C42.5499 23.0956 46.9044 27.4501 47.7833 32.9492H44.4335V37.0508H47.7833ZM32.9492 7.95252V18.0754C25.1852 19.0105 19.0106 25.1851 18.0756 32.9492H7.95252C8.9533 19.6241 19.6241 8.9533 32.9492 7.95252ZM7.95252 37.0508H18.0756C19.0106 44.8149 25.1852 50.9895 32.9492 51.9245V62.0476C19.6241 61.0467 8.9533 50.3759 7.95252 37.0508ZM37.0508 62.0475V51.9244C44.8148 50.9894 50.9894 44.8148 51.9244 37.0506H62.0475C61.0467 50.3759 50.3759 61.0467 37.0508 62.0475Z" fill="#373640"/>
</svg>
