<svg width="88" height="88" viewBox="0 0 88 88" fill="none" xmlns="http://www.w3.org/2000/svg">
<path d="M69.4831 54.2112C67.7561 50.6106 61.5777 45.6128 55.6085 40.7838C52.2791 38.0924 49.1331 35.5478 47.1275 33.5422C46.6251 33.0362 45.8735 32.8748 45.2099 33.1132C43.9743 33.5606 43.2115 33.9052 42.6103 34.1728C41.6937 34.5834 41.3857 34.7228 40.1499 34.8474C39.6035 34.9024 39.1123 35.1958 38.8079 35.6504C36.2155 39.526 33.5315 39.196 31.7385 38.5948C31.1665 38.4042 31.0639 38.1584 31.0089 37.9238C30.6239 36.3142 32.5563 32.5668 35.0605 30.0624C41.0189 24.1004 44.0915 22.608 50.5815 25.5084C57.9441 28.801 65.3215 31.3788 65.3949 31.4044C66.3593 31.738 67.3969 31.232 67.7305 30.275C68.0605 29.318 67.5581 28.273 66.6011 27.9394C66.5277 27.9138 59.2971 25.3874 52.0811 22.157C43.6735 18.3987 39.0607 20.8737 32.4717 27.4664C29.9637 29.9744 26.5573 35.049 27.4373 38.7708C27.8149 40.3548 28.9297 41.5282 30.5869 42.0744C34.7413 43.4458 38.5325 42.133 41.3559 38.3858C42.5219 38.2062 43.1563 37.9422 44.1095 37.5132C44.4542 37.3592 44.8575 37.1796 45.3929 36.9632C47.4903 38.9322 50.3209 41.2238 53.3019 43.6328C58.6919 47.9924 64.8043 52.9352 66.1793 55.7952C66.8577 57.2068 66.1279 58.1272 65.6329 58.5488C64.9069 59.1722 63.9133 59.3702 63.3743 58.9924C62.7803 58.5854 62.0067 58.5598 61.3943 58.9264C60.7783 59.293 60.4337 59.986 60.5107 60.6974C60.6353 61.8634 59.5683 62.5308 59.1063 62.7618C57.9329 63.3558 56.7083 63.2532 56.2499 62.8278C55.7365 62.3512 54.9995 62.2118 54.3469 62.4538C53.6943 62.6994 53.2395 63.3008 53.1735 63.9974C53.0635 65.2 52.1725 66.355 51.0102 66.806C50.4492 67.0186 49.6352 67.147 48.9055 66.4796C48.4509 66.069 47.8202 65.9113 47.2299 66.0543C46.6323 66.2009 46.1519 66.6336 45.9429 67.2093C45.8733 67.3926 45.7155 67.8326 43.9995 67.8326C42.7785 67.8326 40.5822 67.0076 39.5079 66.2963C38.2209 65.4493 30.1505 59.4286 23.1803 53.5913C22.2013 52.7663 20.5073 50.9989 19.0113 49.4369C17.6839 48.0509 16.4703 46.7933 15.8469 46.2653C15.0659 45.6053 13.9109 45.7043 13.2619 46.4816C12.6093 47.2553 12.7045 48.414 13.4783 49.0666C14.0467 49.547 15.1467 50.7093 16.3603 51.9743C17.9957 53.6829 19.6859 55.4503 20.8227 56.4036C27.6501 62.12 35.8561 68.291 37.4913 69.3653C38.8407 70.2526 41.7483 71.4993 43.9997 71.4993C45.8073 71.4993 47.1971 71.0849 48.1613 70.2746C49.4519 70.777 50.9187 70.7806 52.3303 70.2306C53.9987 69.5853 55.3699 68.2836 56.1473 66.707C57.5919 67.015 59.2457 66.7986 60.7489 66.0434C62.2193 65.3028 63.2825 64.1698 63.8105 62.846C65.2699 62.923 66.7732 62.406 68.0162 61.339C70.1211 59.5388 70.7003 56.7376 69.4831 54.2112Z" fill="#FD7823"/>
<path d="M36.6671 23.8328H20.1671C19.1551 23.8328 18.3337 24.6542 18.3337 25.6662C18.3337 26.6782 19.1551 27.4995 20.1671 27.4995H36.6671C37.6791 27.4995 38.5005 26.6782 38.5005 25.6662C38.5005 24.6542 37.6791 23.8328 36.6671 23.8328Z" fill="#FD7823"/>
<path d="M74.8553 50.3097C74.2869 49.4701 73.1503 49.2391 72.3107 49.8111L66.9501 53.4117C66.1105 53.9763 65.8867 55.1167 66.4515 55.9563C66.8071 56.4807 67.3865 56.7667 67.9769 56.7667C68.3252 56.7667 68.6809 56.6677 68.9962 56.4551L74.3569 52.8545C75.1963 52.2897 75.4199 51.1495 74.8553 50.3097Z" fill="#FD7823"/>
<path d="M63.4731 59.0586C62.1605 58.0246 56.2901 52.015 52.6601 48.231C51.9598 47.4976 50.7975 47.472 50.0678 48.176C49.3344 48.8764 49.3124 50.0386 50.0128 50.7684C50.9551 51.751 59.2674 60.4154 61.1998 61.9408C61.5334 62.2048 61.9368 62.3332 62.3328 62.3332C62.8718 62.3332 63.4108 62.0912 63.7774 61.6328C64.4045 60.8406 64.2689 59.6856 63.4731 59.0586Z" fill="#FD7823"/>
<path d="M56.148 62.736C53.9516 60.9797 48.4333 55.1167 47.1866 53.76C46.4972 53.012 45.3422 52.968 44.5942 53.65C43.8498 54.3356 43.7986 55.498 44.4842 56.2424C44.5502 56.312 51.1356 63.4218 53.8562 65.5998C54.1936 65.8674 54.6006 65.9994 55.0002 65.9994C55.5356 65.9994 56.0708 65.761 56.4338 65.3138C57.0647 64.5217 56.9363 63.3667 56.148 62.736Z" fill="#FD7823"/>
<path d="M48.8511 66.4287C46.2367 64.225 40.8871 58.5307 39.8421 57.4123C39.1491 56.6717 37.9867 56.6313 37.2497 57.3243C36.5091 58.0173 36.4723 59.1759 37.1617 59.9167C38.6651 61.5263 43.7837 66.953 46.4861 69.2336C46.8307 69.5233 47.2487 69.6663 47.6667 69.6663C48.1873 69.6663 48.7081 69.4426 49.0711 69.0136C49.7237 68.2363 49.6247 67.0813 48.8511 66.4287Z" fill="#FD7823"/>
<path d="M21.428 20.6684C18.2856 17.691 5.72 16.7266 1.94339 16.503C1.42278 16.4774 0.942391 16.6496 0.575781 16.998C0.209 17.3426 0 17.8266 0 18.3326V51.3326C0 52.3446 0.821391 53.166 1.83339 53.166H12.8334C13.6254 53.166 14.3294 52.6564 14.575 51.901C14.8426 51.0796 21.1604 31.6904 21.9926 22.157C22.0404 21.5996 21.835 21.0496 21.428 20.6684ZM11.495 49.4994H3.66661V20.298C9.559 20.7636 15.917 21.7756 18.227 22.8976C17.2554 30.9276 12.859 45.1946 11.495 49.4994Z" fill="#FD7823"/>
<path d="M86.1667 20.166C71.7713 20.166 63.7853 23.851 63.4517 24.005C62.9751 24.2286 62.6193 24.643 62.4727 25.1454C62.3261 25.6478 62.3993 26.1868 62.6743 26.634C64.9403 30.2824 72.0353 50.5444 73.3993 55.487C73.6193 56.2826 74.3417 56.8326 75.1667 56.8326H86.1667C87.1787 56.8326 88.0001 56.0112 88.0001 54.9992V21.9992C88.0001 20.9836 87.1787 20.166 86.1667 20.166ZM84.3335 53.166H76.5381C74.8001 47.5046 69.6667 32.7426 66.8031 26.6414C69.6007 25.6918 75.6105 24.06 84.3335 23.8548V53.166Z" fill="#FD7823"/>
</svg>
