<svg width="84" height="84" viewBox="0 0 84 84" fill="none" xmlns="http://www.w3.org/2000/svg">
<g clip-path="url(#clip0)">
<path d="M42.0003 21.9866C30.9648 21.9866 21.9868 30.9647 21.9868 42.0001C21.9868 53.0354 30.9648 62.0136 42.0003 62.0136C53.0358 62.0136 62.0138 53.0356 62.0138 42.0001C62.0138 30.9646 53.0358 21.9866 42.0003 21.9866V21.9866ZM58.5865 39.7847C56.6163 40.313 53.126 40.9028 51.4119 39.1009C50.9886 38.6553 50.6252 38.1933 50.2738 37.7464C49.2844 36.4884 48.163 35.0625 45.9834 34.7352C44.0547 34.4458 42.6421 35.3219 41.6103 35.9613C41.1564 36.2428 40.5922 36.5913 40.3861 36.5397C36.0288 35.4103 36.3436 31.9125 37.1521 27.798C37.3007 27.0412 37.4217 26.4261 37.461 25.8936C38.9051 25.486 40.4276 25.268 42.0003 25.268C50.4756 25.2678 57.4993 31.6018 58.5865 39.7847ZM33.893 27.3663C33.5444 29.1464 33.1119 31.5176 33.5744 33.7917C34.1886 36.8111 36.2593 38.8597 39.5633 39.716C41.1275 40.1212 42.3534 39.3608 43.3387 38.7503C44.2197 38.2042 44.7953 37.8744 45.4966 37.9802C46.3524 38.1085 46.7888 38.6232 47.6944 39.7749C48.0739 40.2572 48.5039 40.804 49.0337 41.3617C50.6507 43.0612 52.8755 43.5872 55.0108 43.5872C56.3272 43.587 57.6095 43.3871 58.694 43.1388C58.5539 45.2134 58.034 47.1856 57.2033 48.986C56.1097 48.1585 54.7788 47.1746 54.0755 46.7421C51.7159 45.2916 49.4883 44.8784 47.4544 45.5143C44.2686 46.51 42.5032 49.8071 41.4522 52.2008C40.2685 54.8973 38.0758 56.3736 35.8826 57.5671C35.88 57.5684 35.8775 57.5701 35.8749 57.5714C34.6451 57.0859 33.4861 56.4587 32.4181 55.7101C32.5234 55.6501 32.6287 55.5902 32.7336 55.5306C34.6789 54.4266 36.8839 53.175 36.8527 50.7252C36.8368 49.4764 36.026 48.4866 35.1678 47.4389C34.4382 46.548 33.6111 45.5386 33.2848 44.3716C32.9436 43.1511 32.7605 41.7351 32.7406 40.1629C32.6999 36.9286 31.1043 33.984 28.4807 32.1514C29.913 30.191 31.7607 28.5524 33.893 27.3663V27.3663ZM25.2681 42.0001C25.2681 39.4991 25.8196 37.1245 26.8076 34.9915C28.445 36.23 29.4339 38.1295 29.4602 40.2042C29.4837 42.0611 29.7074 43.7606 30.1253 45.2551C30.6368 47.0852 31.742 48.4343 32.6299 49.5182C32.9879 49.9551 33.4728 50.5471 33.5696 50.8079C33.5012 51.3224 32.0699 52.1347 31.1143 52.6771C30.6797 52.9238 30.2374 53.1749 29.8046 53.4442C26.9925 50.4496 25.2681 46.4224 25.2681 42.0001V42.0001ZM42.0003 58.7323C41.4336 58.7323 40.8735 58.7039 40.3211 58.6486C41.8185 57.5104 43.4222 55.8761 44.4568 53.5197C45.2499 51.7131 46.5252 49.2424 48.4335 48.6459C49.5216 48.306 50.8418 48.6059 52.3574 49.5374C52.9659 49.9116 54.3498 50.9385 55.5296 51.8351C52.4842 56.0126 47.554 58.7323 42.0003 58.7323V58.7323Z" fill="#FD7823"/>
<path d="M83.6978 41.0514C83.5088 40.7847 78.9829 34.4441 71.617 28.0158C67.2702 24.2222 62.8359 21.1948 58.4374 19.0173C52.8693 16.2608 47.3389 14.8633 42 14.8633C36.661 14.8633 31.1307 16.2609 25.5625 19.0173C21.164 21.1948 16.7297 24.2222 12.3829 28.0158C5.01683 34.4441 0.491 40.7847 0.301836 41.0514C-0.100937 41.6197 -0.100937 42.3805 0.301836 42.9486C0.490836 43.2154 5.01666 49.5558 12.3826 55.9842C16.7294 59.7778 21.1637 62.8053 25.5622 64.9827C31.1303 67.7393 36.6607 69.1368 41.9996 69.1368C47.3386 69.1368 52.8689 67.7391 58.4371 64.9827C62.8356 62.8053 67.2699 59.7778 71.6167 55.9842C78.9826 49.5558 83.5084 43.2154 83.6974 42.9486C84.1005 42.3803 84.1005 41.6197 83.6978 41.0514V41.0514ZM69.4594 53.512C63.007 59.1431 53.0056 65.8555 41.9998 65.8555C31.017 65.8555 21.0349 59.1692 14.5951 53.56C9.13365 48.8031 5.21863 43.9878 3.68891 41.9995C5.21091 40.0196 9.09624 35.239 14.5402 30.4881C20.9926 24.857 30.994 18.1445 41.9998 18.1445C52.9826 18.1445 62.9647 24.8309 69.4045 30.44C74.8659 35.197 78.7808 40.0119 80.3107 42.0005C78.7885 43.9804 74.9032 48.7611 69.4594 53.512V53.512Z" fill="#FD7823"/>
<path d="M42 11.3542C42.9061 11.3542 43.6406 10.6195 43.6406 9.71355V7.20093C43.6406 6.29497 42.9061 5.5603 42 5.5603C41.0939 5.5603 40.3594 6.29497 40.3594 7.20093V9.71371C40.3594 10.6197 41.0939 11.3542 42 11.3542Z" fill="#FD7823"/>
<path d="M17.7247 18.1051C18.0452 18.4253 18.465 18.5856 18.8848 18.5856C19.3047 18.5856 19.7247 18.4253 20.0449 18.1051C20.6856 17.4644 20.6856 16.4256 20.0449 15.7848L18.2681 14.008C17.6275 13.3675 16.5886 13.3675 15.9478 14.008C15.3071 14.6486 15.3071 15.6875 15.9478 16.3283L17.7247 18.1051Z" fill="#FD7823"/>
<path d="M65.1157 18.5854C65.5355 18.5854 65.9555 18.4251 66.2758 18.1049L68.0526 16.3281C68.6932 15.6874 68.6932 14.6485 68.0526 14.0077C67.4119 13.3672 66.3731 13.3672 65.7324 14.0077L63.9556 15.7845C63.3149 16.4252 63.3149 17.464 63.9556 18.1049C64.2758 18.4253 64.6958 18.5854 65.1157 18.5854V18.5854Z" fill="#FD7823"/>
<path d="M42 72.646C41.0939 72.646 40.3594 73.3807 40.3594 74.2866V76.7992C40.3594 77.7052 41.0939 78.4399 42 78.4399C42.9061 78.4399 43.6406 77.7052 43.6406 76.7992V74.2866C43.6406 73.3807 42.9061 72.646 42 72.646Z" fill="#FD7823"/>
<path d="M66.2749 65.8952C65.6343 65.2547 64.5954 65.2547 63.9546 65.8952C63.314 66.5358 63.314 67.5747 63.9546 68.2155L65.7314 69.9923C66.0518 70.3126 66.4717 70.4728 66.8915 70.4728C67.3113 70.4728 67.7313 70.3126 68.0516 69.9923C68.6922 69.3516 68.6922 68.3128 68.0516 67.6721L66.2749 65.8952Z" fill="#FD7823"/>
<path d="M17.7241 65.8953L15.9473 67.6721C15.3066 68.3128 15.3066 69.3516 15.9473 69.9923C16.2677 70.3125 16.6875 70.4728 17.1074 70.4728C17.5272 70.4728 17.9472 70.3125 18.2675 69.9923L20.0443 68.2155C20.6849 67.5748 20.6849 66.536 20.0443 65.8951C19.4036 65.2546 18.3648 65.2547 17.7241 65.8953V65.8953Z" fill="#FD7823"/>
</g>
<defs>
<clipPath id="clip0">
<rect width="84" height="84" fill="white"/>
</clipPath>
</defs>
</svg>
