<svg width="62" height="61" viewBox="0 0 62 61" fill="none" xmlns="http://www.w3.org/2000/svg">
<path fill-rule="evenodd" clip-rule="evenodd" d="M31 34C26.4591 34 22.19 32.2317 18.9791 29.0209C15.7682 25.81 14 21.5409 14 17C14 12.4591 15.7683 8.19008 18.9791 4.97914C22.1899 1.7682 26.4591 0 31 0C35.5408 0 39.8099 1.76827 43.0208 4.97914C46.2317 8.19002 48 12.4591 48 17C48 21.5409 46.2316 25.8099 43.0208 29.0209C39.81 32.2318 35.5408 34 31 34ZM31 2.125C22.7979 2.125 16.125 8.7979 16.125 17C16.125 25.2021 22.7979 31.875 31 31.875C39.2021 31.875 45.875 25.2021 45.875 17C45.875 8.7979 39.2021 2.125 31 2.125ZM26.0528 50.457V48.0345C26.0528 48.025 26.0527 48.0155 26.0524 48.0061C26.0084 46.1314 25.9627 44.1929 25.4248 42.1733C24.1985 37.5814 21.5397 35.0459 16.5357 33.6953C16.4943 33.6841 16.4493 33.6747 16.4031 33.6651L16.403 33.665L16.4029 33.665C16.2956 33.6426 16.1825 33.6189 16.0961 33.5693C16.0149 33.5225 15.9527 33.4116 15.9007 33.3186C15.8863 33.2929 15.8728 33.2687 15.8597 33.2475L12.7067 28.1299C12.1229 27.1775 11.2003 26.5094 10.1089 26.2485L9.35271 16.4863C9.17482 14.2091 7.42028 12.4883 5.27145 12.4836H5.26249C3.08459 12.4836 1.32739 14.204 1.17372 16.4889L0.381703 28.293C0.378349 28.3245 0.376199 28.3563 0.375301 28.3884L0.0169882 33.7286C0.0145489 33.7535 0.0128565 33.7786 0.0119344 33.8039C0.0101126 33.831 0.00919439 33.8579 0.00915407 33.8846C-0.136288 38.3896 1.46442 39.8416 3.88019 42.0327L3.92766 42.0757C4.23221 42.3515 4.59065 42.6579 4.97016 42.9822C7.07564 44.7817 10.2574 47.5011 10.2574 50.1277V50.4569C9.03593 50.8516 8.14975 51.9991 8.14975 53.35V57.7494C8.14975 59.4256 9.51377 60.7893 11.1902 60.7893H25.1198C26.7963 60.7893 28.1603 59.4256 28.1603 57.7494V53.35C28.1604 51.9992 27.2743 50.8518 26.0528 50.457ZM3.59053 16.6512L2.43102 33.927C2.31252 37.3408 3.25097 38.1921 5.50746 40.2387L5.5542 40.2811C5.82752 40.5287 6.16624 40.8183 6.52518 41.1252L6.52529 41.1253L6.54379 41.1411C8.98712 43.2292 12.6794 46.385 12.6794 50.1277V50.3099H23.631V48.0485C23.5903 46.3198 23.5472 44.5328 23.0849 42.7972C22.2511 39.6757 20.7108 37.3303 15.9037 36.0331L15.824 36.0115C14.8999 35.7623 14.429 35.5454 13.797 34.5159L10.6435 29.3977C10.3965 28.9948 10.0071 28.7137 9.54549 28.6035C9.09187 28.4953 8.60531 28.5702 8.208 28.8152C7.37583 29.3283 7.11463 30.4226 7.6259 31.2546L12.7363 39.5512C13.087 40.1206 12.9098 40.8667 12.3404 41.2174C11.771 41.5681 11.0249 41.3908 10.6742 40.8214L5.56304 32.5237C4.35294 30.5545 4.96956 27.9666 6.93687 26.7537C7.17809 26.605 7.43057 26.4827 7.69068 26.3868L6.93832 16.6738C6.86978 15.797 6.27351 14.9074 5.26648 14.9053H5.26309C4.37619 14.9053 3.6575 15.6551 3.59053 16.6512ZM25.7386 57.7495C25.7386 58.0903 25.461 58.3676 25.1199 58.3676H11.1903C10.855 58.3676 10.5718 58.0846 10.5718 57.7495V53.3501C10.5718 53.015 10.855 52.732 11.1903 52.732H25.1199C25.4553 52.732 25.7386 53.015 25.7386 53.3501V57.7495ZM61.9879 33.8039C61.9876 33.7916 61.9869 33.7794 61.986 33.7671L60.8259 16.4889C60.6723 14.2039 58.9153 12.4836 56.7372 12.4836H56.7282C54.5794 12.4883 52.8249 14.2091 52.6469 16.487L51.8908 26.2485C50.7995 26.5093 49.877 27.1774 49.2945 28.1275L46.1389 33.2492C46.126 33.2702 46.1126 33.2942 46.0984 33.3197C46.0466 33.4122 45.9847 33.5229 45.9036 33.5693C45.8172 33.6186 45.7047 33.6422 45.5979 33.6646L45.5979 33.6646C45.5518 33.6743 45.5067 33.6837 45.4653 33.695C40.4601 35.0458 37.8014 37.5814 36.5749 42.174C36.0372 44.1929 35.9915 46.1314 35.9475 48.0061C35.9472 48.0156 35.9471 48.0251 35.9471 48.0345V50.457C34.7256 50.8518 33.8394 51.9992 33.8394 53.3501V57.7495C33.8394 59.4257 35.2035 60.7895 36.88 60.7895H50.8096C52.4861 60.7895 53.85 59.4257 53.85 57.7495V53.3501C53.85 51.9992 52.9638 50.8518 51.7424 50.457V50.1278C51.7424 47.5012 54.9241 44.7818 57.0296 42.9823C57.4091 42.658 57.7676 42.3517 58.073 42.0751L58.1196 42.0327C60.5498 39.8285 62.1553 38.3724 61.9879 33.8039ZM51.4282 57.7495C51.4282 58.0846 51.145 58.3676 50.8097 58.3676H36.8801C36.5447 58.3676 36.2615 58.0846 36.2615 57.7495V53.3501C36.2615 53.015 36.5447 52.732 36.8801 52.732H50.8097C51.145 52.732 51.4282 53.015 51.4282 53.3501V57.7495ZM56.4927 40.2388L56.4468 40.2805C56.1684 40.5324 55.8235 40.8272 55.4585 41.1392L55.4577 41.1399L55.4563 41.1411C53.013 43.2292 49.3207 46.385 49.3207 50.1277V50.3099H38.3691V48.0487C38.4098 46.3201 38.4529 44.5328 38.915 42.7979C39.7489 39.6757 41.2892 37.3303 46.0975 36.0327L46.176 36.0115C47.1001 35.7623 47.5711 35.5455 48.2019 34.5177L51.358 29.3954C51.6035 28.9949 51.9929 28.7138 52.4545 28.6036C52.6226 28.5635 52.7922 28.5487 52.9595 28.5569C52.9659 28.5573 52.9722 28.5571 52.9785 28.5574C53.2646 28.5747 53.5432 28.6619 53.7931 28.816C54.1951 29.0633 54.4772 29.4544 54.5872 29.9175C54.6969 30.3792 54.6216 30.8535 54.3748 31.2536L49.2637 39.5512C48.913 40.1206 49.0901 40.8666 49.6596 41.2174C50.2291 41.5682 50.9751 41.3909 51.3258 40.8214L56.4365 32.5244C57.0229 31.5738 57.203 30.4491 56.9436 29.3576C56.6839 28.2644 56.0155 27.3395 55.0631 26.7538C54.8219 26.6051 54.5696 26.4828 54.3093 26.3869L55.0617 16.6747C55.1302 15.7971 55.7265 14.9076 56.7335 14.9054H56.7369C57.6237 14.9054 58.3425 15.6553 58.4095 16.6512L59.5685 33.9105C59.6904 37.338 58.7527 38.1889 56.4927 40.2388ZM28.3437 13.2812C28.3437 14.7459 29.5353 15.9375 31 15.9375C33.6364 15.9375 35.7812 18.0824 35.7812 20.7188C35.7812 22.9899 34.1889 24.8949 32.0625 25.3795V26.5625C32.0625 27.1493 31.5868 27.625 31 27.625C30.4131 27.625 29.9375 27.1493 29.9375 26.5625V25.3795C27.811 24.8949 26.2187 22.9899 26.2187 20.7188C26.2187 20.132 26.6944 19.6562 27.2812 19.6562C27.868 19.6562 28.3437 20.132 28.3437 20.7188C28.3437 22.1834 29.5353 23.375 31 23.375C32.4646 23.375 33.6562 22.1834 33.6562 20.7188C33.6562 19.2541 32.4646 18.0625 31 18.0625C28.3636 18.0625 26.2187 15.9176 26.2187 13.2812C26.2187 11.0101 27.811 9.10509 29.9375 8.62046V7.4375C29.9375 6.85073 30.4131 6.375 31 6.375C31.5868 6.375 32.0625 6.85073 32.0625 7.4375V8.62046C34.1889 9.10509 35.7812 11.0101 35.7812 13.2812C35.7812 13.868 35.3055 14.3438 34.7187 14.3438C34.1319 14.3438 33.6562 13.868 33.6562 13.2812C33.6562 11.8166 32.4646 10.625 31 10.625C29.5353 10.625 28.3437 11.8166 28.3437 13.2812Z" fill="#D1D1D1"/>
</svg>
