<svg width="66" height="62" viewBox="0 0 66 62" fill="none" xmlns="http://www.w3.org/2000/svg">
<path fill-rule="evenodd" clip-rule="evenodd" d="M36.9799 14.584C37.3909 14.4137 37.8639 14.5078 38.1785 14.8223L40.6436 17.2896L45.7432 12.1966L35.9532 2.4H31.9008C31.9008 6.64014 28.4635 10.0775 24.2234 10.0775C19.9832 10.0775 16.5459 6.64014 16.5459 2.4H12.4418L2.65951 12.19L7.75251 17.2863L10.2231 14.8223C10.5377 14.5078 11.0107 14.4137 11.4217 14.584C11.8327 14.7542 12.1007 15.1552 12.1008 15.6V42H22.0008C22.6083 42 23.1008 42.4925 23.1008 43.1C23.1008 43.7075 22.6083 44.2 22.0008 44.2H12.1008C10.8858 44.2 9.90081 43.215 9.90081 42V18.2554L9.31121 18.8428C8.44972 19.7011 7.05639 19.7011 6.19491 18.8428L1.10081 13.7487C0.242418 12.8868 0.242418 11.4932 1.10081 10.6313L10.8908 0.841302C11.3028 0.43098 11.8604 0.200416 12.4418 0.200002H35.9598C36.5412 0.200416 37.0989 0.43098 37.5108 0.841302L47.3008 10.6313C48.1598 11.4929 48.1598 12.8871 47.3008 13.7487L42.2045 18.8417C41.3426 19.7001 39.949 19.7001 39.0871 18.8417L38.5008 18.2554V26.6C38.5008 27.2075 38.0083 27.7 37.4008 27.7C36.7933 27.7 36.3008 27.2075 36.3008 26.6V15.6C36.3009 15.1552 36.5689 14.7542 36.9799 14.584ZM18.747 2.4C18.7615 5.41496 21.2078 7.85241 24.2228 7.856C27.2387 7.85362 29.6863 5.41582 29.7008 2.4H18.747ZM27.5008 33.2C27.5008 31.3775 28.9783 29.9 30.8008 29.9H57.2008C59.0233 29.9 60.5008 31.3775 60.5008 33.2V37.4482L65.64 55.9524C65.8045 56.546 65.7127 57.1814 65.3867 57.7042C65.0607 58.2269 64.5306 58.589 63.9251 58.7024L48.447 61.6042C47.3658 61.8074 46.3007 61.1806 45.9533 60.1368L44.0008 54.2782L42.0472 60.1357C41.7449 61.0331 40.9042 61.638 39.9572 61.6394C39.8225 61.6395 39.6881 61.6269 39.5557 61.602L24.0765 58.7002C23.471 58.5868 22.9409 58.2247 22.6149 57.702C22.2889 57.1792 22.1971 56.5438 22.3616 55.9502L27.5008 37.4482V33.2ZM48.0411 59.4416L63.5192 56.5398L63.5214 56.5387L58.5648 38.7H41.1265L43.618 46.1624C43.8103 46.7395 43.4983 47.3633 42.9212 47.5556C42.344 47.7478 41.7203 47.4358 41.528 46.8587L38.8088 38.7H29.4368L24.4824 56.5398L39.9561 59.4416L42.9536 50.4524C43.102 50.001 43.5234 49.6959 43.9986 49.6959C44.4738 49.6959 44.8952 50.001 45.0436 50.4524L48.0411 59.4416ZM58.3008 36.5V33.2C58.3008 32.5925 57.8083 32.1 57.2008 32.1H30.8008C30.1933 32.1 29.7008 32.5925 29.7008 33.2V36.5H58.3008ZM55.5508 47.5C53.4245 47.5 51.7008 49.2237 51.7008 51.35C51.7008 53.4763 53.4245 55.2 55.5508 55.2C57.6771 55.2 59.4008 53.4763 59.4008 51.35C59.4008 49.2237 57.6771 47.5 55.5508 47.5ZM55.5508 53C54.6396 53 53.9008 52.2613 53.9008 51.35C53.9008 50.4387 54.6396 49.7 55.5508 49.7C56.4621 49.7 57.2008 50.4387 57.2008 51.35C57.2008 52.2613 56.4621 53 55.5508 53ZM31.7241 11.4931C33.1628 12.089 34.1008 13.4928 34.1008 15.05C34.1008 17.1763 32.3771 18.9 30.2508 18.9C28.6936 18.9 27.2898 17.962 26.6939 16.5233C26.098 15.0847 26.4274 13.4287 27.5284 12.3276C28.6295 11.2265 30.2855 10.8972 31.7241 11.4931ZM28.6008 15.05C28.6008 15.9613 29.3395 16.7 30.2508 16.7C31.1621 16.7 31.9008 15.9613 31.9008 15.05C31.9008 14.1387 31.1621 13.4 30.2508 13.4C29.3395 13.4 28.6008 14.1387 28.6008 15.05Z" fill="#D1D1D1"/>
</svg>
