<svg width="62" height="56" viewBox="0 0 62 56" fill="none" xmlns="http://www.w3.org/2000/svg">
<path fill-rule="evenodd" clip-rule="evenodd" d="M47.6796 12.469V4.78112C47.6796 2.66065 45.9553 0.935547 43.8359 0.935547C41.7559 0.935547 40.0573 2.59441 39.9918 4.65797C36.0719 7.95414 28.8404 11.3285 22.1794 11.7055V10.5073C22.1794 8.48913 20.5382 6.8471 18.521 6.8471H12.7853C10.7681 6.8471 9.12708 8.48913 9.12708 10.5073V11.8155C3.99549 12.4178 0 16.7945 0 22.09C0 27.3857 3.99549 31.7624 9.12708 32.3647V33.6729C9.12708 35.2665 10.1507 36.6247 11.5744 37.1259V53.8535C11.5744 54.5222 12.1166 55.0645 12.7853 55.0645H15.6549C17.903 55.0645 19.732 53.233 19.732 50.9819V37.126C21.1557 36.6248 22.1794 35.2666 22.1794 33.673V32.4748C28.8405 32.8517 36.0719 36.2261 39.9918 39.5222C40.0573 41.5858 41.7558 43.2446 43.8359 43.2446C45.9553 43.2446 47.6796 41.5195 47.6796 39.399V31.7112C51.3892 29.991 53.8273 26.2272 53.8273 22.0901C53.8273 17.9531 51.3892 14.1891 47.6796 12.469ZM17.8835 30.0162H13.4231V14.1639H17.8835V30.0162ZM11.549 10.5073C11.549 9.82443 12.1036 9.26898 12.7853 9.26898H18.521C19.2028 9.26898 19.7575 9.82443 19.7575 10.5073V11.7421H11.549V10.5073ZM2.42188 22.09C2.42188 17.7195 5.97307 14.1639 10.338 14.1639H11.0012V30.0162H10.338C5.97307 30.0162 2.42188 26.4605 2.42188 22.09ZM17.3101 50.9819C17.3101 51.8976 16.5676 52.6426 15.6549 52.6426H13.9963V37.3329H17.3101V50.9819ZM19.7575 33.673C19.7575 34.3557 19.2028 34.9112 18.521 34.9112H12.7853C12.1036 34.9112 11.549 34.3557 11.549 33.673V32.4381H19.7575V33.673ZM45.2577 39.399C45.2577 40.184 44.6199 40.8227 43.8359 40.8227C43.05 40.8227 42.4105 40.1841 42.4105 39.399V27.5311C42.4105 26.8624 41.8683 26.3202 41.1996 26.3202C40.5309 26.3202 39.9887 26.8624 39.9887 27.5311V36.4623C35.2149 33.0519 27.8035 30.0162 20.9685 30.0162H20.3052V14.1639H20.9685C27.8034 14.1639 35.215 11.1281 39.9887 7.71777V16.6489C39.9887 17.3176 40.5309 17.8598 41.1996 17.8598C41.8683 17.8598 42.4105 17.3176 42.4105 16.6489V4.78112C42.4105 3.99619 43.0499 3.35742 43.8359 3.35742C44.62 3.35742 45.2577 3.99607 45.2577 4.78112V13.2758V30.9042V39.399ZM47.6796 28.9503V15.2298C49.9617 16.7176 51.4054 19.2935 51.4054 22.09C51.4054 24.8866 49.9617 27.4626 47.6796 28.9503ZM60.7891 20.8791H58.2869C57.6182 20.8791 57.0759 21.4213 57.0759 22.09C57.0759 22.7587 57.6182 23.3009 58.2869 23.3009H60.7891C61.4578 23.3009 62.0001 22.7587 62.0001 22.09C62.0001 21.4213 61.4578 20.8791 60.7891 20.8791ZM57.8786 15.4245C57.6423 15.6604 57.3328 15.7784 57.0233 15.7784C56.713 15.7784 56.4027 15.6599 56.166 15.4227C55.6937 14.9492 55.6945 14.1826 56.1679 13.7102L58.6668 11.2164C59.1401 10.744 59.907 10.7446 60.3793 11.2182C60.8517 11.6917 60.8508 12.4583 60.3775 12.9307L57.8786 15.4245ZM57.879 28.7557C57.4056 28.2833 56.639 28.2839 56.1664 28.7575C55.6941 29.2309 55.6948 29.9975 56.1683 30.47L58.6672 32.9638C58.9035 33.1997 59.2129 33.3177 59.5224 33.3177C59.8327 33.3177 60.1431 33.1991 60.3796 32.962C60.8519 32.4887 60.8512 31.722 60.3777 31.2495L57.879 28.7557ZM39.989 22.09C39.989 21.4213 40.5312 20.8791 41.1999 20.8791C41.8687 20.8791 42.4109 21.4214 42.4109 22.0901C42.4109 22.7588 41.8686 23.3044 41.1999 23.3044C40.5312 23.3044 39.989 22.7656 39.989 22.0969V22.09Z" fill="#D1D1D1"/>
</svg>
