<svg width="60" height="60" viewBox="0 0 60 60" fill="none" xmlns="http://www.w3.org/2000/svg">
<path fill-rule="evenodd" clip-rule="evenodd" d="M11.9996 0C7.03674 0.00105466 2.99986 4.03793 2.99986 9.00079C2.99986 13.9637 7.03674 17.9996 11.9996 17.9996C16.9625 17.9996 20.9993 13.9627 20.9993 8.99985C20.9993 4.03687 16.9625 0 11.9996 0ZM11.9996 15.0006C8.68575 15.0006 5.99978 12.3146 5.99978 9.00079C5.99978 5.68694 8.68575 3.00097 11.9996 3.00097C15.3134 3.00097 17.9994 5.68694 17.9994 9.00079C17.9994 12.3146 15.3136 15.0006 11.9996 15.0006ZM56.9989 14.9996H26.9998C25.3428 14.9996 23.9999 16.3425 23.9999 17.9995V20.2904L26.9998 21.7904V17.9995H56.9989V41.9977H26.9998V38.4318L23.9999 37.6829V41.9977C23.9999 43.6547 25.3428 44.9976 26.9998 44.9976H39.3515L31.7136 57.7263C31.2857 58.4353 31.5176 59.3582 32.2296 59.7832C32.9326 60.2142 33.8586 59.9822 34.2865 59.2673L40.4994 48.9116V58.4963C40.4994 59.3253 41.1704 59.9963 41.9993 59.9963C42.8283 59.9963 43.4993 59.3253 43.4993 58.4963V48.9116L49.7131 59.2663C49.9941 59.7353 50.492 59.9953 50.9991 59.9953C51.2631 59.9953 51.5291 59.9283 51.77 59.7814C52.4821 59.3563 52.713 58.4334 52.286 57.7244L44.6482 44.9958H56.9988C58.6558 44.9958 59.9987 43.6528 59.9987 41.9959V17.9995C59.9988 16.3425 58.6559 14.9996 56.9989 14.9996ZM50.5859 22.5584C51.3849 22.3204 52.2138 22.7894 52.4399 23.5864C52.6689 24.3823 52.2089 25.2143 51.4119 25.4402L32.9995 30.7011V32.998C32.9995 33.9219 32.5735 34.7949 31.8456 35.3629C31.3125 35.7789 30.6616 35.9979 29.9996 35.9979C29.7566 35.9979 29.5126 35.969 29.2726 35.909L20.6028 33.742L17.9819 57.3284C17.8129 58.8473 16.5289 59.9963 15 59.9963H9.00021C7.43522 59.9963 6.13424 58.7943 6.01026 57.2344L4.91729 43.4978H3.00039C2.11038 43.4978 1.26642 43.1028 0.696434 42.4199C0.12645 41.7369 -0.110613 40.836 0.0484057 39.961L3.04832 23.4625C3.30823 22.0365 4.55027 20.9995 6.00018 20.9995H17.9998C18.4659 20.9995 18.9249 21.1085 19.3418 21.3165L31.3415 27.3164C31.6174 27.4553 31.8594 27.6384 32.0754 27.8473L50.5859 22.5584ZM17.9998 29.9992L29.9995 32.9991V29.9992L17.9998 23.9993H13.5V33.1252C13.5 33.9541 12.829 34.6251 12 34.6251C11.171 34.6251 10.5001 33.9541 10.5001 33.1252V23.9995H6.00018L3.00027 40.4979H7.6881L9.0001 56.9974H14.9999L17.9998 29.9992Z" fill="#FD7823"/>
</svg>
