<svg width="62" height="60" viewBox="0 0 62 60" fill="none" xmlns="http://www.w3.org/2000/svg">
<path fill-rule="evenodd" clip-rule="evenodd" d="M20.2909 24.4734H14.9453C14.2765 24.4734 13.7344 23.9313 13.7344 23.2626V21.3477C13.7344 17.6414 15.6377 14.2115 18.6959 12.2115C17.6899 10.9276 17.088 9.31293 17.088 7.55947C17.088 3.39114 20.48 0 24.6493 0C27.2848 0 29.6429 1.35045 31.0007 3.44757C32.3597 1.35057 34.7172 0 37.3499 0C41.5192 0 44.9112 3.39114 44.9112 7.55947C44.9112 9.31281 44.3093 10.9274 43.3035 12.2112C46.3636 14.2118 48.2683 17.6417 48.2683 21.3476V23.2625C48.2683 23.9313 47.7262 24.4734 47.0574 24.4734H41.7084C41.8432 25.1559 41.9146 25.8562 41.9146 26.5671V28.482C41.9146 29.1508 41.3725 29.693 40.7037 29.693H21.2957C20.6269 29.693 20.0847 29.1508 20.0847 28.482V26.5671C20.0847 25.8562 20.1563 25.1559 20.2909 24.4734ZM22.5066 27.2709H39.4926V26.567C39.4926 23.4718 37.7841 20.6233 35.088 19.1323C33.9083 19.8941 32.5052 20.3383 30.9996 20.3383C29.494 20.3383 28.0909 19.894 26.9112 19.1323C24.2151 20.6233 22.5066 23.4718 22.5066 26.567V27.2709ZM45.8466 22.0515V21.3476C45.8466 18.2532 44.1368 15.4048 41.4391 13.9131C40.4857 14.5285 39.3863 14.9356 38.2045 15.0692C37.9287 15.9342 37.5003 16.7311 36.9525 17.4304C38.7025 18.5748 40.0742 20.1868 40.9276 22.0515H45.8466ZM42.4893 7.55947C42.4893 4.72658 40.1838 2.4219 37.3499 2.4219C35.3042 2.4219 33.5037 3.62159 32.6814 5.40689C35.9736 6.1578 38.4535 9.06141 38.5552 12.5529C40.8093 12.0091 42.4893 9.97737 42.4893 7.55947ZM36.1391 12.7754C36.1391 9.9425 33.8336 7.63782 30.9997 7.63782C28.1659 7.63782 25.8603 9.9425 25.8603 12.7754C25.8603 15.6101 28.1659 17.9164 30.9997 17.9164C33.8336 17.9164 36.1391 15.6101 36.1391 12.7754ZM29.3193 5.40653C28.4988 3.62146 26.6978 2.4219 24.6494 2.4219C21.8154 2.4219 19.5099 4.72658 19.51 7.55935C19.51 9.97725 21.1901 12.0091 23.4441 12.5528C23.5459 9.06093 26.0264 6.15683 29.3193 5.40653ZM20.5604 13.9131C17.8647 15.4042 16.1563 18.2525 16.1563 21.3476V22.0515H21.0719C21.9252 20.1868 23.297 18.5746 25.0469 17.4304C24.4991 16.7311 24.0708 15.9342 23.7949 15.0692C22.6132 14.9356 21.5138 14.5285 20.5604 13.9131ZM26.0528 49.2461V46.8236L26.0527 46.8113L26.0524 46.7952C26.0084 44.9205 25.9627 42.982 25.4248 40.9624C24.1985 36.3705 21.5397 33.835 16.5357 32.4844C16.4943 32.4732 16.4492 32.4638 16.4031 32.4542L16.4029 32.4541C16.2957 32.4317 16.1825 32.408 16.0961 32.3584C16.0149 32.3117 15.9527 32.2007 15.9007 32.1077C15.8863 32.0821 15.8728 32.0578 15.8597 32.0366L12.7067 26.919C12.1229 25.9666 11.2003 25.2985 10.1089 25.0376L9.35271 15.2754C9.17482 12.9982 7.42028 11.2774 5.27145 11.2727H5.26249C3.08459 11.2727 1.32739 12.9931 1.17372 15.278L0.0169882 32.5177C0.0145489 32.5426 0.0128565 32.5677 0.0119344 32.593C0.0101126 32.6201 0.00919439 32.647 0.00915407 32.6737C-0.136288 37.1787 1.46442 38.6307 3.88019 40.8218L3.92766 40.8648C4.23221 41.1406 4.59065 41.447 4.97016 41.7713C7.07564 43.5708 10.2574 46.2902 10.2574 48.9168V49.246C9.03593 49.6407 8.14975 50.7882 8.14975 52.1391V56.5385C8.14975 58.2147 9.51377 59.5784 11.1902 59.5784H25.1198C26.7963 59.5784 28.1603 58.2147 28.1603 56.5385V52.1391C28.1604 50.7883 27.2743 49.6409 26.0528 49.2461ZM3.59053 15.4403L2.43102 32.7161C2.31252 36.1299 3.25097 36.9812 5.50746 39.0278L5.5542 39.0702C5.82752 39.3178 6.16624 39.6074 6.52518 39.9143L6.52529 39.9144L6.54379 39.9302C8.98712 42.0183 12.6794 45.1741 12.6794 48.9168V49.099H23.631V46.8376C23.5903 45.1089 23.5472 43.3219 23.0849 41.5863C22.2511 38.4648 20.7108 36.1194 15.9037 34.8222L15.824 34.8006C14.8999 34.5514 14.429 34.3345 13.797 33.305L10.6435 28.1868C10.3965 27.7839 10.0071 27.5028 9.54549 27.3926C9.09187 27.2844 8.60531 27.3593 8.208 27.6043C7.37583 28.1174 7.11463 29.2117 7.6259 30.0438L12.7363 38.3403C13.087 38.9097 12.9098 39.6558 12.3404 40.0065C11.771 40.3572 11.0249 40.1799 10.6742 39.6105L5.56304 31.3128C4.35294 29.3436 4.96956 26.7557 6.93687 25.5428C7.17809 25.3941 7.43057 25.2718 7.69068 25.1759L6.93832 15.463C6.86978 14.5861 6.27351 13.6965 5.26648 13.6944H5.26309C4.37619 13.6944 3.6575 14.4442 3.59053 15.4403ZM25.7386 56.5386C25.7386 56.8794 25.461 57.1567 25.1199 57.1567H11.1903C10.855 57.1567 10.5718 56.8737 10.5718 56.5386V52.1392C10.5718 51.8041 10.855 51.5211 11.1903 51.5211H25.1199C25.4553 51.5211 25.7386 51.8041 25.7386 52.1392V56.5386ZM61.9883 32.593C61.988 32.5807 61.9873 32.5685 61.9864 32.5562L60.8263 15.278C60.6727 12.993 58.9157 11.2727 56.7376 11.2727H56.7286C54.5798 11.2774 52.8253 12.9982 52.6473 15.2761L51.8912 25.0376C50.7999 25.2984 49.8774 25.9665 49.2949 26.9166L46.1393 32.0383C46.1265 32.0593 46.113 32.0833 46.0988 32.1087C46.047 32.2013 45.9851 32.312 45.904 32.3584C45.8176 32.4078 45.7051 32.4313 45.5983 32.4537C45.5522 32.4634 45.5071 32.4729 45.4657 32.4841C40.4605 33.8349 37.8018 36.3705 36.5753 40.9631C36.0376 42.982 35.9919 44.9205 35.9479 46.7952C35.9476 46.8047 35.9475 46.8142 35.9475 46.8236V49.2461C34.726 49.6409 33.8398 50.7883 33.8398 52.1392V56.5386C33.8398 58.2148 35.2039 59.5786 36.8804 59.5786H50.81C52.4865 59.5786 53.8504 58.2148 53.8504 56.5386V52.1392C53.8504 50.7883 52.9642 49.6409 51.7428 49.2461V48.9169C51.7428 46.2903 54.9245 43.5709 57.03 41.7714C57.4095 41.4471 57.768 41.1408 58.0734 40.8642L58.12 40.8218C60.5502 38.6176 62.1557 37.1615 61.9883 32.593ZM51.4286 56.5386C51.4286 56.8737 51.1454 57.1567 50.8101 57.1567H36.8805C36.5451 57.1567 36.2619 56.8737 36.2619 56.5386V52.1392C36.2619 51.8041 36.5451 51.5211 36.8805 51.5211H50.8101C51.1454 51.5211 51.4286 51.8041 51.4286 52.1392V56.5386ZM56.4931 39.0279L56.4472 39.0696C56.1688 39.3215 55.8239 39.6164 55.4589 39.9284L55.4581 39.929L55.4567 39.9302C53.0134 42.0183 49.3211 45.1741 49.3211 48.9168V49.099H38.3695V46.8378C38.4102 45.1092 38.4533 43.3219 38.9154 41.587C39.7493 38.4648 41.2896 36.1194 46.0979 34.8218L46.1764 34.8006C47.1005 34.5514 47.5715 34.3346 48.2023 33.3068L51.3584 28.1845C51.6039 27.784 51.9933 27.5029 52.4549 27.3927C52.623 27.3527 52.7926 27.3378 52.9599 27.346C52.9663 27.3464 52.9726 27.3462 52.9789 27.3465C53.265 27.3638 53.5436 27.451 53.7935 27.6051C54.1955 27.8524 54.4776 28.2436 54.5876 28.7066C54.6973 29.1684 54.622 29.6426 54.3752 30.0427L49.2641 38.3403C48.9134 38.9097 49.0905 39.6557 49.66 40.0065C50.2296 40.3573 50.9755 40.18 51.3262 39.6105L56.4369 31.3136C57.0233 30.363 57.2034 29.2382 56.944 28.1467C56.6843 27.0536 56.016 26.1286 55.0635 25.5429C54.8223 25.3942 54.57 25.2719 54.3097 25.176L55.0621 15.4638C55.1306 14.5862 55.7269 13.6967 56.7339 13.6945H56.7373C57.6241 13.6945 58.3429 14.4444 58.4099 15.4403L59.5689 32.6996C59.6908 36.1271 58.7531 36.978 56.4931 39.0279Z" fill="#D1D1D1"/>
</svg>
