<svg width="52" height="60" viewBox="0 0 52 60" fill="none" xmlns="http://www.w3.org/2000/svg">
<path fill-rule="evenodd" clip-rule="evenodd" d="M49.2795 57.6562H50.3692C51.0164 57.6562 51.5411 58.1809 51.5411 58.8281C51.5411 59.4753 51.0164 60 50.3692 60H1.63086C0.983643 60 0.458984 59.4753 0.458984 58.8281C0.458984 58.1809 0.983643 57.6562 1.63086 57.6562H4.77185V30.2833C4.77185 29.6361 5.29651 29.1115 5.94373 29.1115H12.3736V6.5575C12.3736 5.91028 12.8983 5.38562 13.5455 5.38562H16.0421V1.17188C16.0421 0.524658 16.5668 0 17.214 0H35.6321C36.2794 0 36.804 0.524658 36.804 1.17188V5.38562H39.3008C39.9481 5.38562 40.4727 5.91028 40.4727 6.5575V21.0876H48.1077C48.7549 21.0876 49.2795 21.6123 49.2795 22.2595V57.6562ZM34.4601 2.34375H18.3859V5.38562H34.4601V2.34375ZM12.3736 31.4552H7.1156V57.6562H12.3736V31.4552ZM38.1289 7.72937H14.7173V57.6562H20.5508V49.9244C20.5508 49.2772 21.0754 48.7526 21.7227 48.7526H31.1235C31.7707 48.7526 32.2953 49.2772 32.2953 49.9244V57.6562H38.1289V7.72937ZM22.8947 51.0963V57.6562H29.9517V51.0963H22.8947ZM40.4727 23.4314V57.6562H46.9358V23.4314H40.4727ZM18.4076 19.5074H23.8061C24.4533 19.5074 24.978 18.9828 24.978 18.3356V12.9281C24.978 12.2809 24.4533 11.7562 23.8061 11.7562H18.4076C17.7604 11.7562 17.2357 12.2809 17.2357 12.9281V18.3356C17.2357 18.9828 17.7604 19.5074 18.4076 19.5074ZM19.5795 14.1001H22.6342V17.1638H19.5795V14.1001ZM29.0399 19.5074H34.4384C35.0856 19.5074 35.6102 18.9828 35.6102 18.3356V12.9281C35.6102 12.2809 35.0856 11.7562 34.4384 11.7562H29.0399C28.3926 11.7562 27.868 12.2809 27.868 12.9281V18.3356C27.868 18.9828 28.3926 19.5074 29.0399 19.5074ZM30.2117 14.1001H33.2665V17.1638H30.2117V14.1001ZM34.4384 31.4113H29.0399C28.3926 31.4113 27.868 30.8865 27.868 30.2394V24.832C27.868 24.1848 28.3926 23.6602 29.0399 23.6602H34.4384C35.0856 23.6602 35.6102 24.1848 35.6102 24.832V30.2394C35.6102 30.8866 35.0856 31.4113 34.4384 31.4113ZM33.2665 26.0038H30.2117V29.0674H33.2665V26.0038ZM18.4076 31.4113H23.8061C24.4533 31.4113 24.978 30.8866 24.978 30.2394V24.832C24.978 24.1848 24.4533 23.6602 23.8061 23.6602H18.4076C17.7604 23.6602 17.2357 24.1848 17.2357 24.832V30.2394C17.2357 30.8865 17.7604 31.4113 18.4076 31.4113ZM19.5795 26.0038H22.6342V29.0674H19.5795V26.0038ZM34.4384 43.3149H29.0399C28.3926 43.3149 27.868 42.7903 27.868 42.1431V36.7356C27.868 36.0884 28.3926 35.5637 29.0399 35.5637H34.4384C35.0856 35.5637 35.6102 36.0884 35.6102 36.7356V42.1431C35.6102 42.7903 35.0856 43.3149 34.4384 43.3149ZM33.2665 37.9076H30.2117V40.9713H33.2665V37.9076ZM23.8061 43.3149C24.4533 43.3149 24.978 42.7903 24.978 42.1431V36.7356C24.978 36.0884 24.4533 35.5637 23.8061 35.5637H18.4076C17.7604 35.5637 17.2357 36.0884 17.2357 36.7356V42.1431C17.2357 42.7903 17.7604 43.3149 18.4076 43.3149H23.8061ZM19.5795 37.9076H22.6342V40.9713H19.5795V37.9076Z" fill="#FD7823"/>
</svg>
