<svg width="60" height="60" viewBox="0 0 60 60" fill="none" xmlns="http://www.w3.org/2000/svg">
<g clip-path="url(#clip0)">
<path d="M59.7427 48.9579L52.0003 41.2154C51.6572 40.8723 51.1008 40.8723 50.7576 41.2154C50.4144 41.5585 50.4144 42.1149 50.7576 42.4581L51.5805 43.281L44.7081 50.1534L41.906 47.3514C40.8705 46.3158 39.4388 45.7803 37.9779 45.8833L34.8533 46.1027C33.8995 46.1694 32.9663 45.8205 32.2909 45.1451L23.4654 36.3196C22.9806 35.8348 22.9806 35.046 23.4654 34.5613C23.95 34.0765 24.7388 34.0765 25.2238 34.5613L29.3649 38.7024C29.3864 38.7239 29.4086 38.7441 29.4316 38.7628C29.5926 38.8942 29.7895 38.9599 29.9863 38.9599C30.183 38.9599 30.3798 38.8942 30.5409 38.7628C30.5639 38.7441 30.5861 38.7239 30.6076 38.7024C30.9508 38.3593 30.9508 37.8029 30.6076 37.4598L21.629 28.4812C21.3554 28.2076 21.2048 27.844 21.2048 27.457C21.2048 27.0702 21.3554 26.7064 21.629 26.4328C21.9025 26.1593 22.2663 26.0086 22.6531 26.0086C22.9933 26.0086 23.3155 26.1252 23.5742 26.3393L32.651 35.4162C32.8226 35.5877 33.0474 35.6735 33.2723 35.6735C33.4972 35.6735 33.7221 35.5877 33.8936 35.4162C33.8945 35.4153 33.8952 35.4144 33.8959 35.4136C33.8967 35.4128 33.8976 35.4121 33.8984 35.4114C34.2417 35.0682 34.2417 34.5118 33.8984 34.1687L21.0723 21.3521C20.5075 20.7874 20.5075 19.8685 21.0723 19.3038C21.3458 19.0302 21.7095 18.8796 22.0965 18.8796C22.4833 18.8796 22.8471 19.0303 23.1206 19.3038L35.9218 32.1456C36.0934 32.3171 36.3183 32.4029 36.5431 32.4029C36.768 32.4029 36.9929 32.3171 37.1645 32.1456C37.1679 32.1422 37.1708 32.1383 37.1742 32.1349C37.1777 32.1315 37.1815 32.1287 37.1849 32.1253C37.5281 31.7822 37.5281 31.2258 37.1849 30.8826L25.6081 19.3059C25.4518 19.0709 25.3677 18.795 25.3677 18.5062C25.3677 18.1194 25.5184 17.7557 25.792 17.482C26.0655 17.2085 26.4293 17.0578 26.8161 17.0578C27.2031 17.0578 27.5667 17.2084 27.8403 17.482L37.8283 27.47C37.8397 27.4814 37.8518 27.4912 37.8635 27.5019L38.964 28.9398C39.259 29.3251 39.8104 29.3983 40.1959 29.1035C40.5812 28.8085 40.6545 28.2571 40.3596 27.8716L39.1871 26.3398C38.9505 25.9421 38.8861 25.4784 39.0057 25.0298C39.1286 24.5689 39.4279 24.1911 39.8484 23.966C40.6438 23.5403 41.6358 23.8093 42.107 24.5782C42.1252 24.608 47.2196 31.0528 47.2196 31.0528C47.8189 31.8105 48.0553 32.7888 47.8683 33.7367L47.429 35.9614C47.2168 37.036 47.3642 38.1702 47.8441 39.155C47.9963 39.4674 48.3091 39.6491 48.6347 39.6491C48.7638 39.6491 48.8951 39.6205 49.0189 39.5601C49.4552 39.3476 49.6365 38.8216 49.4239 38.3853C49.1109 37.7428 49.0147 37.0029 49.1531 36.302L49.5923 34.0773C49.8792 32.6242 49.5168 31.1245 48.5981 29.9628L48.3561 29.6567C49.0816 28.6948 49.4434 27.4983 49.3578 26.2805L49.14 23.1777C49.0736 22.2334 49.4196 21.3077 50.089 20.6382L59.7422 10.985C60.0854 10.6419 60.0854 10.0855 59.7422 9.74237L51.6843 1.68386C51.3412 1.34073 50.7848 1.34073 50.4417 1.68386L40.8236 11.3019C40.0516 12.0739 38.9512 12.4084 37.8801 12.1971L35.6709 11.7609C34.2262 11.4756 32.7352 11.836 31.5804 12.7494C31.5683 12.759 31.5563 12.7689 31.5449 12.7791L30 14.139L28.4551 12.7791C28.4435 12.7689 28.4317 12.759 28.4196 12.7494C27.2646 11.836 25.7737 11.4758 24.3289 11.7609L22.1198 12.1971C21.0486 12.4085 19.9482 12.0738 19.1762 11.3019L9.55837 1.68386C9.21524 1.34073 8.65884 1.34073 8.31571 1.68386L0.257432 9.74202C-0.0858105 10.0851 -0.0858105 10.6416 0.257432 10.9847L9.91063 20.6379C10.5801 21.3074 10.9261 22.2329 10.8597 23.1773L10.6419 26.28C10.5459 27.6471 11.012 28.9883 11.9256 29.9998C11.012 31.0112 10.5459 32.3524 10.6419 33.7195L10.8597 36.8223C10.9261 37.7666 10.5801 38.6923 9.91063 39.3617L0.257432 49.0149C-0.0858105 49.3581 -0.0858105 49.9145 0.257432 50.2576L8.3156 58.3158C8.48716 58.4873 8.71204 58.5731 8.93692 58.5731C9.16181 58.5731 9.38669 58.4873 9.55825 58.3158L19.1763 48.6977C19.9483 47.9257 21.0488 47.5908 22.1198 47.8025L24.329 48.2387C25.7736 48.5242 27.2647 48.1636 28.4196 47.2502C28.438 47.2357 28.4558 47.2205 28.4729 47.2044L30.2302 45.5701L31.048 46.3878C32.0834 47.4234 33.5155 47.9592 34.9761 47.8559L38.1008 47.6365C39.0536 47.5696 39.9876 47.9185 40.6631 48.594L44.0865 52.0174L44.0866 52.0175L50.3849 58.3158C50.5564 58.4873 50.7813 58.5731 51.0062 58.5731C51.2311 58.5731 51.4559 58.4873 51.6275 58.3158L59.7427 50.2005C60.0859 49.8574 60.0859 49.301 59.7427 48.9579ZM51.063 3.54796L57.8784 10.3633L52.8672 15.3745L46.0518 8.55913L51.063 3.54796ZM32.6877 14.1144C33.4363 13.5303 34.3985 13.3009 35.3305 13.485L37.5397 13.9212C39.1868 14.2466 40.8792 13.7317 42.0664 12.5444L44.8092 9.80167L51.6246 16.6171L48.8465 19.3951C47.817 20.4246 47.285 21.8481 47.3871 23.3004L47.6049 26.403C47.6493 27.036 47.5074 27.6599 47.208 28.2043L43.5759 23.6119C42.6074 22.0869 40.6173 21.5605 39.0192 22.4163C38.2044 22.8525 37.5948 23.605 37.3335 24.4895L29.6407 16.7967L32.6877 14.1144ZM2.12153 10.3633L8.93692 3.54796L13.9481 8.55913L7.13271 15.3745L2.12153 10.3633ZM8.93692 56.4518L2.12153 49.6364L7.13271 44.6252L13.9481 51.4406L8.93692 56.4518ZM27.3034 45.8921C26.5561 46.471 25.5983 46.698 24.6695 46.5145L22.4602 46.0784C20.8133 45.7533 19.1208 46.2678 17.9335 47.4551L15.1908 50.1978L8.37536 43.3825L11.1534 40.6044C12.1829 39.5749 12.7149 38.1514 12.6129 36.6991L12.395 33.5965C12.3287 32.6521 12.6746 31.7264 13.3441 31.057L16.2594 28.1417C16.6026 27.7986 16.6026 27.2422 16.2594 26.8991C15.9163 26.556 15.3599 26.556 15.0167 26.8991L13.1668 28.749C12.6149 28.1005 12.3349 27.26 12.395 26.4034L12.6129 23.3007C12.7149 21.8483 12.1829 20.425 11.1534 19.3955L8.37536 16.6174L15.1908 9.80202L17.9335 12.5448C19.1206 13.732 20.8125 14.2466 22.4602 13.9215L24.6693 13.4853C25.6016 13.3012 26.5634 13.5307 27.3122 14.1146L28.67 15.3101L28.2799 15.6535C27.8324 15.4234 27.3337 15.3007 26.8161 15.3007C25.9598 15.3007 25.1547 15.6342 24.5492 16.2396C24.1694 16.6194 23.8967 17.0778 23.7461 17.5781C23.253 17.281 22.6869 17.1224 22.0964 17.1224C21.2401 17.1224 20.435 17.4559 19.8295 18.0614C18.6656 19.2254 18.586 21.0687 19.5897 22.3262L17.9116 24.0043C17.5684 24.3475 17.5684 24.9039 17.9116 25.247C18.2547 25.5901 18.8111 25.5901 19.1543 25.247L20.8177 23.5835L21.6471 24.4128C21.177 24.5676 20.7461 24.8305 20.386 25.1906C19.7805 25.7961 19.447 26.6012 19.447 27.4575C19.447 28.3138 19.7805 29.1189 20.386 29.7244L23.293 32.6313C22.9023 32.7767 22.5358 33.0055 22.2222 33.319C21.0522 34.489 21.0522 36.3928 22.2222 37.5628L28.9864 44.327L27.3034 45.8921ZM51.0061 56.4518L45.9506 51.3962L52.8232 44.5236L57.8786 49.5791L51.0061 56.4518Z" fill="#FD7823"/>
</g>
<defs>
<clipPath id="clip0">
<rect width="60" height="60" fill="white"/>
</clipPath>
</defs>
</svg>
