<svg width="64" height="64" viewBox="0 0 64 64" fill="none" xmlns="http://www.w3.org/2000/svg">
<path fill-rule="evenodd" clip-rule="evenodd" d="M59.2997 11.0003H22.0247L19.6097 3.01087C19.038 1.15001 17.0751 0.0959588 15.2081 0.647319L9.86044 2.22232C9.27133 2.39657 8.73716 2.71989 8.30959 3.16102L2.28469 9.40117C1.83166 9.87462 1.51904 10.4646 1.38169 11.1053C0.76744 13.9403 -0.92831 24.2177 3.09319 37.5128C7.11469 50.8079 14.2232 58.4876 16.3127 60.5236C16.7809 60.9832 17.367 61.3044 18.0063 61.4518L26.504 63.4121C26.7667 63.4728 27.0355 63.5035 27.3051 63.5035C27.6478 63.5032 27.9886 63.4541 28.3173 63.3575L31.2762 62.485L33.6608 61.7815C34.5686 61.5199 35.3325 60.9032 35.7797 60.071C36.2253 59.2529 36.3232 58.2899 36.0516 57.3988L34.7213 53.0003H59.2997C61.6193 53.0003 63.4997 51.1199 63.4997 48.8003V15.2003C63.4997 12.8807 61.6193 11.0003 59.2997 11.0003ZM42.7622 31.6853L61.2705 14.501C61.3538 14.7249 61.3975 14.9615 61.3997 15.2003V48.8003C61.3967 49.0253 61.3573 49.2483 61.2831 49.4608L42.7622 31.6853ZM59.2997 13.1003C59.4188 13.1021 59.5375 13.114 59.6546 13.136L37.6697 33.5417C36.8642 34.2887 35.6191 34.2887 34.8137 33.5417L19.6937 19.5442L20.8077 19.2155C21.7138 18.9521 22.4761 18.3358 22.9235 17.5051C23.3685 16.6874 23.4657 15.7251 23.1933 14.8349L22.6652 13.1003H59.2997ZM17.0204 43.7929C14.8526 41.1391 13.2408 38.0764 12.2807 34.787C10.9245 30.6423 10.7396 26.2034 11.7462 21.9602C11.7679 21.903 11.8161 21.8599 11.8754 21.8447L17.3427 20.233L29.6739 31.6444L17.0204 43.7929ZM33.9254 59.0714C33.7433 59.4089 33.4329 59.6587 33.0644 59.7644L31.6721 60.175L29.1153 51.7141C29.0121 51.3486 28.7196 51.0674 28.3504 50.9786C27.9812 50.8898 27.5928 51.0073 27.3347 51.2859C27.0766 51.5644 26.989 51.9606 27.1056 52.322L29.6634 60.7703L27.7251 61.3415C27.4814 61.4139 27.2231 61.4219 26.9754 61.3646L18.4778 59.4053C18.2145 59.3438 17.9732 59.2108 17.7806 59.021C15.7856 57.0733 8.97424 49.7201 5.10289 36.9059C1.23154 24.0917 2.84644 14.2553 3.43339 11.5484C3.48984 11.2886 3.61703 11.0495 3.80089 10.8575L9.81949 4.62052C9.9931 4.44057 10.21 4.30824 10.4495 4.23622L12.4035 3.66082L14.9603 12.1207C15.0941 12.5638 15.5022 12.8671 15.9651 12.8672C16.068 12.8677 16.1703 12.8525 16.2686 12.8221C16.8234 12.6543 17.1374 12.0687 16.97 11.5138L14.4216 3.06757L15.8013 2.66122C16.5635 2.43148 17.3685 2.85811 17.6063 3.61777L21.1763 15.4408C21.2859 15.7953 21.2481 16.1791 21.0713 16.5055C20.8887 16.8427 20.5786 17.0927 20.2103 17.1995L18.8169 17.6101L18.4043 16.2451C18.226 15.7041 17.6488 15.4039 17.1035 15.5686C16.5582 15.7333 16.2437 16.3027 16.3946 16.852L16.803 18.2044L11.2821 19.8319C10.5252 20.053 9.93536 20.6481 9.72079 21.4069C8.61322 26.0296 8.80399 30.8685 10.272 35.3897C11.5613 39.9788 14.0847 44.1262 17.5674 47.3807C18.1597 47.9029 18.9799 48.0817 19.7357 47.8532L25.2702 46.2215L25.6829 47.5865C25.7861 47.952 26.0786 48.2332 26.4478 48.322C26.8171 48.4108 27.2055 48.2933 27.4636 48.0147C27.7217 47.7362 27.8092 47.34 27.6926 46.9786L27.2841 45.6262L28.6628 45.2198C29.425 44.9919 30.2291 45.4178 30.4688 46.1764L34.0388 58.0004C34.1492 58.3573 34.1102 58.7438 33.9306 59.0714H33.9254ZM34.086 50.9003L32.4774 45.5758C31.9049 43.7114 29.9369 42.6567 28.0674 43.2122L19.1424 45.8435C19.0783 45.8627 19.0089 45.8503 18.9555 45.8099C18.8362 45.7051 18.703 45.5794 18.5532 45.4381L18.4463 45.3374L31.2185 33.0734L33.3857 35.08C34.9997 36.5682 37.4858 36.5682 39.0998 35.08L41.2208 33.1102L59.7081 50.8552C59.5738 50.8836 59.437 50.8988 59.2997 50.9003H34.086ZM27.7999 17.3002H44.5999C45.1798 17.3002 45.6499 16.8301 45.6499 16.2502C45.6499 15.6703 45.1798 15.2002 44.5999 15.2002H27.7999C27.22 15.2002 26.7499 15.6703 26.7499 16.2502C26.7499 16.8301 27.22 17.3002 27.7999 17.3002ZM57.2 24.6502C57.2 24.0703 57.6701 23.6002 58.25 23.6002C58.8299 23.6002 59.3 24.0703 59.3 24.6502V39.3502C59.3 39.9301 58.8299 40.4002 58.25 40.4002C57.6701 40.4002 57.2 39.9301 57.2 39.3502V24.6502Z" fill="#FD7823"/>
</svg>
