<svg width="62" height="62" viewBox="0 0 62 62" fill="none" xmlns="http://www.w3.org/2000/svg">
<path fill-rule="evenodd" clip-rule="evenodd" d="M54.1323 4.83809L60.91 22.4603C62.1571 25.7484 60.5579 29.4315 57.304 30.7652L56.1313 31.2399C56.1897 31.5775 56.2202 31.9195 56.2222 32.2621V54.9894C56.2183 58.4743 53.394 61.2986 49.9091 61.3025H6.97986C3.49489 61.2986 0.670654 58.4743 0.666739 54.9894V32.2621C0.670654 28.7772 3.49489 25.9529 6.97986 25.949H9.11622L8.18491 23.4632C6.94943 20.2035 8.53453 16.5528 11.7596 15.2299L45.6303 1.18949C45.6783 1.16967 45.7265 1.15047 45.7749 1.13179C49.1062 -0.152553 52.8479 1.50679 54.1323 4.83809ZM49.9091 27.9693H6.97986C4.71269 27.9757 2.84249 29.7462 2.71219 32.0097H54.1767C54.0464 29.7464 52.1762 27.9758 49.9091 27.9693ZM23.8839 18.5078L17.1324 21.8845L18.5202 25.3552L25.2717 21.9795L23.8839 18.5078ZM49.9091 59.2824C52.2789 59.2796 54.1992 57.3593 54.202 54.9895V42.1107H2.68694V54.9895C2.68972 57.3593 4.61004 59.2796 6.97986 59.2824H49.9091ZM2.68694 40.0905H54.202V34.0299H2.68694V40.0905ZM55.4909 29.3259L56.5464 28.8986C58.7823 27.9813 59.8806 25.45 59.0232 23.1906L52.2454 5.56839C52.2318 5.53279 52.2176 5.49731 52.203 5.46208C51.264 3.19782 48.6673 2.12345 46.403 3.06234L12.5334 17.1027C10.318 18.012 9.22897 20.5196 10.0768 22.7593L11.2728 25.9492H16.582L14.9113 21.7734C14.7161 21.2857 14.9273 20.7297 15.3971 20.4946L23.9618 16.2098C23.9869 16.1972 24.0125 16.1857 24.0387 16.1752C24.5566 15.9681 25.1443 16.2201 25.3515 16.7381L27.494 22.0916C27.689 22.5796 27.4773 23.1356 27.0071 23.3704L21.8505 25.9492H49.9091C52.252 25.9524 54.4006 27.2522 55.4909 29.3259ZM43.0909 56.4419C41.2086 57.5355 38.8842 57.5355 37.0019 56.4419C34.1077 54.7604 33.1245 51.0511 34.806 48.1568C36.4874 45.2626 40.1967 44.2796 43.0909 45.961C44.0106 45.4243 45.0563 45.1413 46.1212 45.1408C47.1954 45.1383 48.251 45.4214 49.1799 45.961C52.0741 47.6424 53.0573 51.3518 51.3759 54.246C49.6944 57.1401 45.9851 58.1234 43.0909 56.4419ZM46.1212 47.1611C45.6632 47.1659 45.2095 47.2493 44.7798 47.4076C46.5682 49.6207 46.5682 52.7822 44.7798 54.9955C45.2095 55.1538 45.6632 55.2371 46.1212 55.2419C48.3526 55.2419 50.1616 53.433 50.1616 51.2015C50.1616 48.9701 48.3526 47.1611 46.1212 47.1611ZM43.0909 53.846C41.7441 52.3402 41.7441 50.0628 43.0909 48.5571C44.4377 50.0629 44.4377 52.3402 43.0909 53.846ZM41.402 47.4076C40.9724 47.2493 40.5186 47.1658 40.0606 47.1611C37.8292 47.1611 36.0202 48.97 36.0202 51.2015C36.0202 53.433 37.8292 55.2419 40.0606 55.2419C40.5186 55.2371 40.9724 55.1538 41.402 54.9955C39.6136 52.7823 39.6136 49.6207 41.402 47.4076ZM43.275 21.5433L44.0956 23.3894L53.7321 19.1058L52.9114 17.2598L43.275 21.5433ZM36.8421 19.4076L50.761 12.9831L51.6073 14.8166L37.6883 21.241L36.8421 19.4076Z" fill="#FD7823"/>
</svg>
