<svg width="62" height="60" viewBox="0 0 62 60" fill="none" xmlns="http://www.w3.org/2000/svg">
<path fill-rule="evenodd" clip-rule="evenodd" d="M14.9458 24.6841H20.2914C20.1568 25.3666 20.0852 26.0669 20.0852 26.7778V28.6927C20.0852 29.3615 20.6273 29.9037 21.2962 29.9037H40.7042C41.373 29.9037 41.9151 29.3615 41.9151 28.6927V26.7778C41.9151 26.0669 41.8437 25.3666 41.7089 24.6841H47.0579C47.7267 24.6841 48.2688 24.142 48.2688 23.4732V21.5583C48.2688 17.8524 46.3641 14.4225 43.3039 12.4219C44.3098 11.1381 44.9117 9.5235 44.9117 7.77017C44.9117 3.60184 41.5197 0.210693 37.3504 0.210693C34.7177 0.210693 32.3602 1.56126 31.0012 3.65827C29.6433 1.56114 27.2853 0.210693 24.6498 0.210693C20.4805 0.210693 17.0885 3.60184 17.0885 7.77017C17.0885 9.52362 17.6904 11.1383 18.6964 12.4221C15.6382 14.4222 13.7349 17.852 13.7349 21.5584V23.4733C13.7349 24.142 14.277 24.6841 14.9458 24.6841ZM39.4931 27.4816H22.5071V26.7777C22.5071 23.6825 24.2156 20.834 26.9117 19.343C28.0914 20.1047 29.4945 20.549 31.0001 20.549C32.5057 20.549 33.9088 20.1048 35.0885 19.343C37.7846 20.834 39.4931 23.6825 39.4931 26.7777V27.4816ZM45.8471 21.5583V22.2622H40.9281C40.0747 20.3975 38.7029 18.7854 36.953 17.6411C37.5008 16.9418 37.9291 16.1448 38.205 15.2799C39.3868 15.1463 40.4862 14.7392 41.4396 14.1238C44.1373 15.6155 45.8471 18.4639 45.8471 21.5583ZM37.3504 2.63259C40.1843 2.63259 42.4898 4.93727 42.4898 7.77017C42.4898 10.1881 40.8098 12.2198 38.5557 12.7636C38.454 9.27211 35.9741 6.36849 32.6819 5.61758C33.5042 3.83228 35.3047 2.63259 37.3504 2.63259ZM31.0002 7.84851C33.8341 7.84851 36.1396 10.1532 36.1396 12.9861C36.1396 15.8208 33.8341 18.1271 31.0002 18.1271C28.1664 18.1271 25.8608 15.8208 25.8608 12.9861C25.8608 10.1532 28.1664 7.84851 31.0002 7.84851ZM24.6499 2.63259C26.6983 2.63259 28.4992 3.83216 29.3198 5.61722C26.0268 6.36752 23.5463 9.27162 23.4446 12.7635C21.1906 12.2198 19.5105 10.1879 19.5105 7.77004C19.5104 4.93727 21.8159 2.63259 24.6499 2.63259ZM16.1568 21.5583C16.1568 18.4632 17.8652 15.6149 20.5609 14.1238C21.5142 14.7392 22.6137 15.1463 23.7954 15.2799C24.0713 16.1448 24.4996 16.9418 25.0474 17.6411C23.2975 18.7853 21.9257 20.3975 21.0724 22.2622H16.1568V21.5583ZM26.0528 47.0346V49.4571C27.2743 49.8518 28.1604 50.9992 28.1603 52.35V56.7494C28.1603 58.4256 26.7963 59.7894 25.1198 59.7894H11.1902C9.51377 59.7894 8.14975 58.4256 8.14975 56.7494V52.35C8.14975 50.9991 9.03593 49.8516 10.2574 49.457V49.1277C10.2574 46.5011 7.07564 43.7817 4.97016 41.9823C4.59065 41.658 4.23221 41.3516 3.92766 41.0757L3.88019 41.0327C1.46442 38.8416 -0.136288 37.3897 0.00915407 32.8847C0.00919439 32.8579 0.0101126 32.831 0.0119344 32.804C0.0128565 32.7787 0.0145489 32.7535 0.0169882 32.7287L0.375622 27.3837C0.376542 27.3547 0.378477 27.326 0.381392 27.2977L1.17372 15.489C1.32739 13.204 3.08459 11.4836 5.26249 11.4836H5.27145C7.42028 11.4884 9.17482 13.2091 9.35271 15.4863L10.1089 25.2485C11.2003 25.5095 12.1229 26.1775 12.7067 27.13L15.8597 32.2476C15.8728 32.2687 15.8863 32.293 15.9007 32.3186C15.9527 32.4116 16.0149 32.5226 16.0961 32.5693C16.1825 32.619 16.2957 32.6426 16.4029 32.6651L16.4031 32.6651L16.4033 32.6651C16.4493 32.6748 16.4944 32.6842 16.5357 32.6954C21.5397 34.0459 24.1985 36.5814 25.4248 41.1733C25.9627 43.193 26.0084 45.1314 26.0524 47.0061L26.0528 47.0258L26.0528 47.0346ZM2.43102 32.9271L3.59053 15.6512C3.6575 14.6551 4.37619 13.9053 5.26309 13.9053H5.26648C6.27351 13.9075 6.86978 14.797 6.93832 15.6739L7.69068 25.3868C7.43057 25.4827 7.17809 25.605 6.93687 25.7537C4.96956 26.9666 4.35294 29.5545 5.56304 31.5238L10.6742 39.8214C11.0249 40.3908 11.771 40.5681 12.3404 40.2174C12.9098 39.8667 13.087 39.1207 12.7363 38.5513L7.6259 30.2547C7.11463 29.4226 7.37583 28.3283 8.208 27.8152C8.60531 27.5703 9.09187 27.4953 9.54549 27.6036C10.0071 27.7138 10.3965 27.9948 10.6435 28.3977L13.797 33.5159C14.429 34.5454 14.8999 34.7623 15.824 35.0115L15.9037 35.0331C20.7108 36.3304 22.2511 38.6758 23.0849 41.7972C23.5472 43.5329 23.5903 45.3199 23.631 47.0485V49.3099H12.6794V49.1277C12.6794 45.385 8.98712 42.2293 6.54379 40.1411L6.52529 40.1253L6.52518 40.1252C6.16624 39.8183 5.82752 39.5287 5.5542 39.2811L5.50746 39.2387C3.25097 37.1921 2.31252 36.3408 2.43102 32.9271ZM25.1199 57.3676C25.461 57.3676 25.7386 57.0903 25.7386 56.7495V52.3502C25.7386 52.0151 25.4553 51.7321 25.1199 51.7321H11.1903C10.855 51.7321 10.5718 52.0151 10.5718 52.3502V56.7495C10.5718 57.0846 10.855 57.3676 11.1903 57.3676H25.1199ZM61.9859 32.7672C61.9868 32.7794 61.9875 32.7916 61.9879 32.804C62.1552 37.3724 60.5497 38.8286 58.1195 41.0327L58.0729 41.0751C57.7675 41.3517 57.409 41.6581 57.0295 41.9824C54.924 43.7818 51.7423 46.5013 51.7423 49.1278V49.4571C52.9638 49.8518 53.8499 50.9992 53.8499 52.3501V56.7495C53.8499 58.4257 52.486 59.7895 50.8095 59.7895H36.8799C35.2034 59.7895 33.8394 58.4257 33.8394 56.7495V52.3501C33.8394 50.9992 34.7255 49.8518 35.947 49.4571V47.0346C35.947 47.0251 35.9471 47.0157 35.9474 47.0061C35.9915 45.1314 36.0371 43.193 36.5748 41.1741C37.8013 36.5814 40.46 34.0458 45.4652 32.695C45.5066 32.6838 45.5517 32.6743 45.5978 32.6647C45.7046 32.6423 45.8171 32.6187 45.9036 32.5693C45.9846 32.5229 46.0465 32.4123 46.0983 32.3197L46.0983 32.3196C46.1125 32.2942 46.126 32.2702 46.1388 32.2492L49.2945 27.1275C49.8769 26.1774 50.7994 25.5093 51.8907 25.2485L52.6468 15.487C52.8249 13.2091 54.5793 11.4884 56.7281 11.4836H56.7371C58.9152 11.4836 60.6722 13.2039 60.8258 15.489L61.9859 32.7672ZM50.8096 57.3676C51.1449 57.3676 51.4281 57.0846 51.4281 56.7495V52.3501C51.4281 52.0151 51.1449 51.7321 50.8096 51.7321H36.88C36.5446 51.7321 36.2614 52.0151 36.2614 52.3501V56.7495C36.2614 57.0846 36.5446 57.3676 36.88 57.3676H50.8096ZM56.4467 39.2805L56.4926 39.2388C58.7526 37.1889 59.6903 36.338 59.5684 32.9105L58.4094 15.6512C58.3424 14.6554 57.6236 13.9054 56.7368 13.9054H56.7334C55.7264 13.9076 55.1301 14.7972 55.0616 15.6747L54.3092 25.3869C54.5695 25.4828 54.8218 25.6051 55.063 25.7538C56.0155 26.3396 56.6838 27.2645 56.9435 28.3576C57.2029 29.4492 57.0229 30.5739 56.4364 31.5245L51.3257 39.8214C50.975 40.3909 50.2291 40.5682 49.6596 40.2174C49.09 39.8666 48.9129 39.1207 49.2636 38.5513L54.3747 30.2536C54.6215 29.8535 54.6969 29.3793 54.5872 28.9176C54.4771 28.4545 54.195 28.0634 53.793 27.8161C53.5431 27.6619 53.2645 27.5747 52.9784 27.5574C52.9721 27.5572 52.9658 27.5573 52.9594 27.5569C52.7922 27.5487 52.6225 27.5636 52.4544 27.6037C51.9928 27.7139 51.6034 27.9949 51.3579 28.3954L48.2018 33.5177C47.571 34.5456 47.1 34.7623 46.1759 35.0115L46.0974 35.0327C41.2891 36.3304 39.7488 38.6758 38.9149 41.7979C38.4528 43.5329 38.4097 45.3201 38.369 47.0487V49.3099H49.3206V49.1277C49.3206 45.385 53.0129 42.2293 55.4562 40.1411L55.4576 40.14L55.4584 40.1393C55.8234 39.8273 56.1683 39.5325 56.4467 39.2805Z" fill="#FD7823"/>
</svg>
