<svg width="58" height="58" viewBox="0 0 58 58" fill="none" xmlns="http://www.w3.org/2000/svg">
<path fill-rule="evenodd" clip-rule="evenodd" d="M51.3954 16.0034L52.5542 16.5148C52.9048 16.6691 53.1309 17.016 53.1307 17.3988V19.3672C53.1309 19.7502 52.9047 20.0971 52.5542 20.2514L51.3954 20.7627C51.3558 20.9014 51.3142 21.0373 51.2689 21.1704L51.9154 22.2848C52.0864 22.5803 52.0888 22.9439 51.922 23.2417C51.5671 23.8741 51.1442 24.4658 50.6604 25.0062C50.4266 25.2702 50.0668 25.3847 49.7234 25.3044L48.5052 25.026C48.4033 25.1043 48.2985 25.1817 48.1919 25.2572L48.073 26.5528C48.0409 26.8954 47.8293 27.1955 47.5172 27.3407C46.8661 27.6454 46.1822 27.875 45.479 28.0248C45.4138 28.0387 45.3474 28.0457 45.2808 28.0455C45.0084 28.0457 44.7488 27.9309 44.5655 27.7294L43.5086 26.5663C39.9629 33.8161 32.0563 37.8539 24.1045 36.4756L21.0895 40.2446C20.7668 40.6477 20.1841 40.7258 19.7666 40.4221L17.8126 39.0009L6.59095 52.8116C6.25578 53.2231 5.65175 53.288 5.23686 52.9569L0.405586 49.0919L0.402083 49.089C-0.0132859 48.7524 -0.0771796 48.1428 0.25944 47.7274L11.2363 34.2181L9.13788 32.692C8.92361 32.5372 8.78266 32.301 8.74812 32.0391C8.71345 31.7776 8.78677 31.5133 8.95103 31.3069L11.5359 28.076C11.2146 27.563 10.9189 27.0345 10.65 26.4923C6.14877 17.4196 9.85472 6.41589 18.9273 1.91471C27.9998 -2.58647 39.0036 1.11936 43.5048 10.1919L44.5713 9.033C44.8014 8.78213 45.1469 8.67126 45.48 8.74143C46.1828 8.8912 46.8663 9.12081 47.5172 9.42554C47.8294 9.57072 48.0409 9.87062 48.073 10.2134L48.1919 11.509C48.2985 11.5836 48.4033 11.661 48.5062 11.7402L49.7234 11.4618C50.0668 11.3821 50.4262 11.4965 50.6604 11.76C51.1446 12.3005 51.568 12.8926 51.923 13.5255C52.089 13.8232 52.0861 14.1863 51.9154 14.4814L51.2689 15.5958C51.3142 15.7289 51.3558 15.8648 51.3954 16.0034ZM2.37312 48.1908L5.69559 50.8489L16.247 37.8629L12.8019 35.3567L2.37312 48.1908ZM18.2078 36.8996L20.1563 38.3168L22.0033 36.0076C18.3202 34.936 15.0644 32.7397 12.6914 29.726L11.092 31.724L18.0979 36.8196L18.2078 36.8996ZM10.6722 18.3831C10.6722 27.4552 18.0265 34.8094 27.0985 34.8094C36.1706 34.8094 43.5249 27.4552 43.5249 18.3831C43.5249 9.31104 36.1706 1.95674 27.0985 1.95674C18.0307 1.96689 10.6823 9.31526 10.6722 18.3831ZM50.1858 19.1842L51.1983 18.738H51.1984V18.0281L50.1859 17.5818C49.906 17.4587 49.7012 17.2102 49.6339 16.9118C49.5553 16.5582 49.4473 16.2116 49.3112 15.8758C49.1961 15.5979 49.217 15.2821 49.3678 15.0219L49.9566 14.0066C49.8384 13.8264 49.7122 13.6499 49.5782 13.4772L48.4742 13.7301C48.171 13.8007 47.8524 13.7202 47.6193 13.514C47.3525 13.2791 47.0661 13.0674 46.7634 12.8809C46.5056 12.7211 46.3376 12.4497 46.3095 12.1477L46.201 10.9654C46.0028 10.8889 45.8028 10.8211 45.6046 10.7634L44.3398 12.1369C45.8278 16.162 45.83 20.5863 44.3458 24.613L45.6074 26.0018C45.8058 25.9443 46.0037 25.8773 46.2009 25.8008L46.3094 24.6185C46.3374 24.3169 46.505 24.046 46.7623 23.8862C47.0651 23.6991 47.3517 23.487 47.6191 23.2521C47.852 23.0454 48.1709 22.9648 48.474 23.036L49.5781 23.2889C49.7124 23.1162 49.8385 22.9397 49.9565 22.7595L49.3677 21.7442C49.2168 21.4839 49.1958 21.1682 49.3111 20.8903C49.4472 20.5545 49.5552 20.208 49.6338 19.8542C49.7009 19.5559 49.9058 19.3073 50.1858 19.1842ZM27.0989 3.88926C19.0942 3.88926 12.605 10.3784 12.605 18.3831C12.6137 26.3842 19.0978 32.8682 27.0989 32.8769C35.1036 32.8769 41.5927 26.3878 41.5927 18.3831C41.5927 10.3784 35.1036 3.88926 27.0989 3.88926ZM15.0597 21.964C13.0807 15.3163 16.8654 8.32292 23.5131 6.34379C24.6768 5.99739 25.8846 5.82153 27.0989 5.82177C28.3116 5.82286 29.5178 6.00041 30.6794 6.34862C30.6178 6.38925 30.5555 6.42953 30.4933 6.4698C30.3171 6.58374 30.141 6.69764 29.9798 6.81919C29.6492 7.06812 29.5138 7.49991 29.6429 7.89306L30.0864 9.2434C29.9043 9.41515 29.726 9.59343 29.5542 9.77557L28.2049 9.33206C27.8122 9.20511 27.3822 9.33978 27.132 9.66795C26.418 10.6056 25.8212 11.6268 25.3551 12.7092C25.1928 13.0899 25.2911 13.5316 25.5995 13.8076L26.6742 14.7701C26.6006 15.0107 26.5355 15.2533 26.4779 15.4958L25.0776 15.7903C24.6306 15.8845 24.3105 16.2788 24.3104 16.7357V20.0308C24.3105 20.4877 24.6304 20.8821 25.0776 20.9763L26.4779 21.2707C26.5355 21.5133 26.6006 21.7558 26.6732 21.9964L25.5994 22.9589C25.291 23.2349 25.1927 23.6766 25.355 24.0573C25.8211 25.139 26.4172 26.1599 27.1299 27.0976C27.3788 27.4282 27.8106 27.5637 28.2038 27.4345L29.5541 26.991C29.7259 27.1731 29.9042 27.3514 30.0863 27.5231L29.6428 28.8725C29.514 29.2652 29.6489 29.6962 29.9787 29.9454C30.1408 30.0679 30.3183 30.1828 30.4957 30.2978L30.4958 30.2978L30.496 30.2979C30.5575 30.3377 30.6189 30.3775 30.6798 30.4177C24.0321 32.3966 17.0387 28.6119 15.0597 21.964ZM32.9208 29.5035C32.5023 29.2899 32.0954 29.0543 31.7017 28.7978L32.1198 27.5258C32.2425 27.1517 32.1264 26.7406 31.8263 26.486C31.3805 26.1089 30.9667 25.6955 30.5892 25.2499C30.3343 24.9508 29.924 24.8354 29.5503 24.9574L28.2744 25.3773C27.9576 24.9118 27.6723 24.4258 27.4205 23.9223L28.434 23.0136C28.7274 22.751 28.8322 22.3368 28.6991 21.9662C28.501 21.4191 28.3492 20.8562 28.2452 20.2837C28.1753 19.8968 27.8779 19.5908 27.4931 19.51L26.2428 19.2467V17.5199L27.4931 17.2566C27.8779 17.1756 28.1753 16.8697 28.2452 16.4828C28.3496 15.9097 28.5014 15.3464 28.6991 14.7984C28.8322 14.4281 28.7272 14.0142 28.434 13.7519L27.4205 12.8443C27.6726 12.3409 27.9579 11.8547 28.2744 11.3892L29.5511 11.8092C29.9252 11.9309 30.3357 11.8151 30.5909 11.5157C30.968 11.0699 31.3814 10.6561 31.827 10.2786C32.1264 10.0238 32.242 9.61324 32.1195 9.23966L31.7015 7.9677C32.0953 7.71165 32.502 7.47636 32.9203 7.26282C34.2414 7.96034 35.4281 8.88673 36.4254 9.99913C31.795 11.2439 29.0503 16.0067 30.2951 20.6371C31.099 23.6276 33.435 25.9635 36.4254 26.7674C35.4285 27.8796 34.2418 28.806 32.9208 29.5035ZM31.999 17.422C32.4255 14.4582 34.7539 12.1297 37.7178 11.7032C40.3077 15.7799 40.3077 20.9863 37.7178 25.0629C34.0285 24.5322 31.4682 21.1112 31.999 17.422ZM56.0454 44.8041L57.3797 45.3929C57.7302 45.5472 57.9564 45.8942 57.956 46.2771V48.4644C57.9563 48.8474 57.73 49.1943 57.3795 49.3485L56.0453 49.9374C55.9934 50.1242 55.9368 50.3036 55.8764 50.4781L56.6199 51.7595C56.7907 52.0549 56.7936 52.4182 56.6275 52.7163C56.2363 53.4129 55.7699 54.0645 55.2366 54.6592C55.003 54.9223 54.6442 55.0364 54.3015 54.9565L52.8974 54.6357C52.7596 54.7435 52.6181 54.848 52.4728 54.949L52.3369 56.438C52.3057 56.7815 52.0935 57.0823 51.7802 57.2268C51.064 57.5615 50.3122 57.8137 49.5391 57.9789C49.4739 57.9928 49.4074 57.9998 49.3409 57.9997C49.0595 57.9999 48.792 57.8772 48.6086 57.6638L47.6253 56.522H47.1535L46.1702 57.6638C45.9412 57.9312 45.5843 58.0521 45.2398 57.9789C44.4667 57.8137 43.715 57.5614 42.9987 57.2268C42.6856 57.0823 42.4732 56.7816 42.4421 56.438L42.3062 54.949C42.1609 54.848 42.0185 54.7432 41.8807 54.6347L40.4785 54.9565C40.1356 55.0364 39.7764 54.9223 39.5424 54.6592C39.0091 54.0644 38.5426 53.4129 38.1515 52.7163C37.9854 52.4182 37.9883 52.0548 38.1591 51.7595L38.9027 50.478C38.8423 50.3033 38.7857 50.1241 38.7338 49.9372L37.3995 49.3484C37.049 49.1942 36.8228 48.8473 36.823 48.4643V46.2771C36.8228 45.8941 37.049 45.5472 37.3995 45.3929L38.7338 44.8041C38.786 44.6176 38.8423 44.4371 38.9027 44.2625L38.1601 42.982C37.9893 42.6869 37.9865 42.3239 38.1526 42.0261C38.543 41.329 39.0091 40.677 39.5426 40.0823C39.7765 39.8197 40.135 39.7057 40.4777 39.785L41.8817 40.1058C42.0196 39.9979 42.1611 39.8935 42.3064 39.7925L42.4423 38.3035C42.4735 37.96 42.6857 37.6592 42.999 37.5147C43.7152 37.18 44.4671 36.9278 45.2401 36.7626C45.5846 36.6879 45.9422 36.8091 46.1705 37.0777L47.1538 38.2195H47.6255L48.6088 37.0777C48.8377 36.8101 49.1947 36.6892 49.5392 36.7626C50.3123 36.9278 51.0641 37.1801 51.7803 37.5147C52.0935 37.6592 52.3058 37.9599 52.337 38.3035L52.4729 39.7925C52.6182 39.8939 52.7597 39.9982 52.8976 40.1058L54.3016 39.785C54.6443 39.7052 55.003 39.8193 55.2367 40.0823C55.7701 40.6771 56.2366 41.3286 56.6277 42.0252C56.7937 42.3233 56.7908 42.6866 56.6201 42.982L55.8765 44.2634C55.9369 44.438 55.9934 44.6173 56.0454 44.8041ZM54.2818 49.0297C54.349 48.7314 54.5538 48.4828 54.8338 48.3597L56.0238 47.835V46.9065L54.8338 46.3818C54.554 46.2587 54.3491 46.0101 54.2818 45.7118C54.1935 45.3138 54.0717 44.9239 53.9176 44.5465C53.8023 44.2679 53.8233 43.9516 53.9742 43.6906L54.6621 42.5054C54.5064 42.2631 54.3384 42.028 54.1582 41.7996L52.8635 42.0958C52.5606 42.1656 52.2424 42.0848 52.0096 41.8788C51.7086 41.6148 51.3861 41.3765 51.0452 41.1664C50.7868 41.0067 50.6183 40.7349 50.5904 40.4323L50.4649 39.0527C50.2054 38.9508 49.9449 38.862 49.6855 38.7885L48.8004 39.8161C48.6167 40.0291 48.3494 40.1518 48.0681 40.152H46.7112C46.4298 40.1518 46.1625 40.0293 45.9789 39.8161L45.0938 38.7885C44.8344 38.8621 44.5739 38.9508 44.3144 39.0527L44.1889 40.4323C44.161 40.7349 43.9925 41.0067 43.7341 41.1664C43.3932 41.3765 43.0707 41.6148 42.7697 41.8788C42.5369 42.0847 42.2188 42.1655 41.9158 42.0958L40.6211 41.7996C40.4409 42.028 40.2729 42.2638 40.1182 42.5044L40.8052 43.6897C40.9562 43.9503 40.9771 44.2663 40.8619 44.5446C40.7079 44.9227 40.586 45.3132 40.4976 45.7118C40.4304 46.0101 40.2256 46.2587 39.9456 46.3818L38.7557 46.9065V47.835L39.9456 48.3597C40.2255 48.4828 40.4303 48.7314 40.4976 49.0297C40.5859 49.4277 40.7077 49.8175 40.8619 50.195C40.9771 50.4736 40.9561 50.7898 40.8052 51.0508L40.1174 52.2361C40.273 52.4776 40.4411 52.7135 40.6213 52.941L41.915 52.6447C42.2187 52.5752 42.5372 52.6564 42.7708 52.8627C43.0713 53.1268 43.3936 53.3653 43.7343 53.5751C43.9929 53.7347 44.1613 54.0066 44.1892 54.3092L44.3147 55.6888C44.5741 55.7907 44.8346 55.8795 45.0941 55.953L45.9792 54.9254C46.1627 54.7124 46.43 54.5896 46.7113 54.5895H48.0682C48.3495 54.5896 48.6168 54.7122 48.8004 54.9254L49.6855 55.953C49.9449 55.8793 50.2054 55.7907 50.4649 55.6888L50.5904 54.3092C50.6183 54.0066 50.7868 53.7347 51.0452 53.5751C51.3861 53.365 51.7086 53.1267 52.0096 52.8627C52.2419 52.6558 52.5604 52.5749 52.8635 52.6457L54.1582 52.9419C54.3384 52.7129 54.5064 52.4776 54.6621 52.2361L53.9742 51.0508C53.8232 50.7898 53.8023 50.4735 53.9176 50.195C54.0717 49.8175 54.1935 49.4277 54.2818 49.0297ZM42.5589 47.3708C42.5589 44.7026 44.722 42.5395 47.3902 42.5395C50.0571 42.5426 52.2183 44.7039 52.2214 47.3708C52.2214 50.039 50.0584 52.202 47.3902 52.202C44.722 52.202 42.5589 50.039 42.5589 47.3708ZM44.4914 47.3708C44.4914 48.9717 45.7892 50.2695 47.3902 50.2695C48.9904 50.2678 50.2871 48.971 50.2889 47.3708C50.2889 45.7698 48.9911 44.472 47.3902 44.472C45.7892 44.472 44.4914 45.7698 44.4914 47.3708Z" fill="#373640"/>
</svg>
